<svg xmlns="http://www.w3.org/2000/svg" version="1.1" xmlns:xlink="http://www.w3.org/1999/xlink" xmlns:svgjs="http://svgjs.dev/svgjs" width="2000" height="825" viewBox="0 0 2000 825"><g transform="matrix(1,0,0,1,0.3398876404492057,-0.18430533622455414)"><svg viewBox="0 0 356 147" data-background-color="#eae5df" preserveAspectRatio="xMidYMid meet" height="825" width="2000" xmlns="http://www.w3.org/2000/svg" xmlns:xlink="http://www.w3.org/1999/xlink"><g id="tight-bounds" transform="matrix(1,0,0,1,-0.06049999999996203,0.0328398599091031)"><svg viewBox="0 0 356.12052 146.9343202801818" height="146.9343202801818" width="356.12052"><g><svg viewBox="0 0 356.12052 146.9343202801818" height="146.9343202801818" width="356.12052"><g><svg viewBox="0 0 356.12052 146.9343202801818" height="146.9343202801818" width="356.12052"><g><path d="M0 146.934v-146.934h356.121v146.934z" fill="#ae445a" stroke="transparent" stroke-width="0" rx="0%" data-fill-palette-color="tertiary"></path><path d="M3.283 143.651v-140.368h349.554v140.368z" fill="#eae5df" stroke="transparent" stroke-width="0" rx="0%" data-fill-palette-color="quaternary"></path><path d="M9.85 137.084v-127.234h336.421v127.234z" fill="#ae445a" stroke="transparent" stroke-width="0" data-fill-palette-color="tertiary"></path></g><g transform="matrix(1,0,0,1,19.69974,19.69974)" id="textblocktransform"><svg viewBox="0 0 316.72104 107.53484028018178" height="107.53484028018178" width="316.72104" id="textblock"><g><svg viewBox="0 0 316.72104 66.10923295238095" height="66.10923295238095" width="316.72104"><g transform="matrix(1,0,0,1,0,0)"><svg width="316.72104" viewBox="2 -38.43 246.07 51.37" height="66.10923295238095" data-palette-color="#eae5df"><path d="M22.71-10.35L17.97-11.23 17.43-13.43Q18.41-13.57 22.02-13.89 25.63-14.21 26.56-14.4L26.56-14.4 26.56 1.12 22.75 1.9Q22.71 1.42 22.71-0.42 22.71-2.25 22.66-2.78L22.66-2.78Q22.66-2.69 22.31-2.22 21.97-1.76 21.24-1.07 20.51-0.39 19.53 0.24 18.55 0.88 17.04 1.32 15.53 1.76 13.87 1.76L13.87 1.76Q2 1.76 2-16.7L2-16.7Q2-19.87 2.49-22.88 2.98-25.88 4.15-28.91 5.32-31.93 7.69-33.79 10.06-35.64 13.33-35.64L13.33-35.64Q16.16-35.64 19.19-34.67 22.22-33.69 24.37-32.23L24.37-32.23 22.41-29.98Q18.6-32.81 14.89-32.81L14.89-32.81Q12.45-32.81 10.69-31.64 8.94-30.47 8.03-28.81 7.13-27.15 6.62-24.61 6.1-22.07 5.98-20.21 5.86-18.36 5.86-15.87L5.86-15.87Q5.86-9.91 8.06-6.13 10.25-2.34 13.77-2.34L13.77-2.34Q15.28-2.34 16.72-2.83 18.16-3.32 19.19-4 20.21-4.69 21.04-5.42 21.88-6.15 22.29-6.64 22.71-7.13 22.71-7.23L22.71-7.23 22.71-10.35ZM32.27-21.09L32.27-21.09 31.3-23.58Q32.57-24.85 34.52-25.61 36.47-26.37 38.38-26.37L38.38-26.37Q46.63-26.37 46.63-12.11L46.63-12.11Q46.63-10.16 46.41-6.35 46.19-2.54 46.19-0.63L46.19-0.63Q45.8 0.88 44.68 0.88L44.68 0.88Q43.8 0.88 43.06 0 42.33-0.88 42.33-1.95L42.33-1.95Q42.33-2.29 42.38-2.44L42.38-2.44Q39.35 0.49 35.94 0.49L35.94 0.49Q33.35 0.49 31.42-1.39 29.49-3.27 29.49-5.96L29.49-5.96Q29.49-10.5 33.03-14.16 36.57-17.82 41.06-17.82L41.06-17.82Q41.26-17.82 41.45-17.8 41.65-17.77 41.92-17.72 42.19-17.68 42.33-17.68L42.33-17.68Q41.94-23.39 37.79-23.39L37.79-23.39Q35.35-23.39 32.27-21.09ZM42.48-5.81L42.48-5.81Q42.58-9.23 42.58-10.99L42.58-10.99Q42.58-12.45 42.48-15.09L42.48-15.09 42.09-15.09Q38.62-15.04 35.76-12.5 32.91-9.96 32.91-6.35L32.91-6.35Q32.91-4.79 33.86-3.86 34.81-2.93 36.18-2.93L36.18-2.93Q38.33-2.93 42.48-5.81ZM68.79-37.3L68.16 1.27 65.47 0.73Q65.47-0.24 65.42-0.73L65.42-0.73Q62.84 0.93 59.96 0.93L59.96 0.93Q55.51 0.93 53.05-2.88 50.58-6.69 50.58-11.52L50.58-11.52Q50.58-14.01 50.95-16.21 51.31-18.41 52.22-20.73 53.12-23.05 55.05-24.41 56.98-25.78 59.71-25.78L59.71-25.78Q62.4-25.78 64.74-24.46L64.74-24.46Q65.13-29.64 65.13-34.91L65.13-34.91Q65.13-37.3 65.08-38.43L65.08-38.43Q67.43-37.99 68.79-37.3L68.79-37.3ZM65.03-3.96L65.03-3.96 64.89-19.68Q64.3-20.9 63.06-21.61 61.81-22.31 60.4-22.31L60.4-22.31Q58.49-22.31 57.15-21.09 55.81-19.87 55.24-17.85 54.68-15.82 54.46-14.06 54.24-12.3 54.24-10.35L54.24-10.35Q54.24-2.05 59.81-2.05L59.81-2.05Q61.66-2.05 63.2-2.56 64.74-3.08 65.03-3.96ZM87.64-25.2L87.64-25.2 89.84-25.68Q89.84-24.22 89.89-23.39L89.89-23.39Q90.18-12.7 90.18-9.47L90.18-9.47Q90.18-8.35 90.23-5.96 90.28-3.56 90.28-2.34L90.28-2.34Q90.28 0.34 90.1 2.29 89.93 4.25 89.35 6.37 88.76 8.5 87.76 9.84 86.76 11.18 84.93 12.06 83.1 12.94 80.61 12.94L80.61 12.94Q78.46 12.94 73.04 12.3L73.04 12.3Q72.99 11.77 72.87 11.13 72.75 10.5 72.75 10.16L72.75 10.16Q72.75 9.42 72.89 8.98L72.89 8.98Q73.28 9.03 75.94 9.38 78.61 9.72 79.88 9.72L79.88 9.72Q83.24 9.72 85.05 7.67 86.86 5.62 86.91 0L86.91 0Q84.51 1.37 81.88 1.37L81.88 1.37Q79.68 1.37 78.02 0.46 76.36-0.44 75.38-1.83 74.41-3.22 73.8-5.2 73.19-7.18 72.97-9.03 72.75-10.89 72.75-12.99L72.75-12.99Q72.75-18.26 75.07-21.83 77.39-25.39 82.12-25.39L82.12-25.39Q84.9-25.39 87.59-23.68L87.59-23.68Q87.64-24.17 87.64-25.2ZM87.05-4.74L87.05-4.74 87.2-20.51Q86.91-21.39 85.37-21.9 83.83-22.41 81.97-22.41L81.97-22.41Q79.34-22.41 77.87-20 76.41-17.58 76.41-14.11L76.41-14.11Q76.41-12.3 76.6-10.57 76.8-8.84 77.39-6.76 77.97-4.69 79.29-3.42 80.61-2.15 82.56-2.15L82.56-2.15Q84.03-2.15 85.25-2.86 86.47-3.56 87.05-4.74ZM113.95-4.74L113.95-4.74 114.44-2.59Q112.29-1.81 108.07-0.85 103.85 0.1 101.8 0.1L101.8 0.1Q99.7 0.1 98.13-1.29 96.57-2.69 95.79-4.86 95.01-7.03 94.64-9.16 94.28-11.28 94.28-13.33L94.28-13.33Q94.28-25.54 105.31-25.54L105.31-25.54Q107.95-25.54 109.95-23.85 111.95-22.17 111.95-19.48L111.95-19.48Q111.95-18.02 111.15-16.89 110.34-15.77 109.19-15.11 108.05-14.45 106.26-13.92 104.48-13.38 103.12-13.13 101.75-12.89 99.84-12.6 97.94-12.3 97.21-12.16L97.21-12.16Q97.26-10.74 97.38-9.67 97.5-8.59 97.87-7.35 98.23-6.1 98.84-5.3 99.45-4.49 100.53-3.96 101.6-3.42 103.07-3.42L103.07-3.42Q104.82-3.42 107.36-3.74 109.9-4.05 111.88-4.39 113.86-4.74 113.95-4.74ZM97.4-15.19L97.4-15.19Q104.04-17.09 108.29-19.19L108.29-19.19Q107.95-20.8 107.36-21.53 106.78-22.27 105.61-22.27L105.61-22.27Q102.63-22.27 100.21-20.21 97.79-18.16 97.4-15.19ZM129.72-23.63L129.72-23.63 130.26-21.44Q128.94-21.34 126.21-20.92 123.47-20.51 122.11-20.41L122.11-20.41Q122.35-18.7 122.4-15.92 122.45-13.13 122.52-11.11 122.59-9.08 122.96-7.06 123.33-5.03 124.47-3.96 125.62-2.88 127.58-2.88L127.58-2.88Q129.04-2.88 131.24-3.56L131.24-3.56Q132.17-1.76 132.6-0.93L132.6-0.93Q128.75 0.44 124.79 0.44L124.79 0.44Q123.33 0.44 122.25-0.44 121.18-1.32 120.59-2.64 120.01-3.96 119.64-5.98 119.27-8.01 119.18-9.81 119.08-11.62 119.08-13.96L119.08-13.96Q119.08-15.23 119.1-17.48 119.13-19.73 119.13-20.56L119.13-20.56Q118.64-20.51 116.83-20.48 115.03-20.46 114.73-20.46L114.73-20.46Q114.39-23.73 114.39-23.83L114.39-23.83Q114.73-23.73 115.51-23.73L115.51-23.73Q115.95-23.73 116.93-23.8 117.91-23.88 118.4-23.88L118.4-23.88Q118.59-23.88 118.91-23.85 119.23-23.83 119.32-23.83L119.32-23.83Q119.52-29.2 119.76-32.57L119.76-32.57 121.96-32.03Q122.01-30.86 122.03-29.52 122.06-28.17 122.08-26.54 122.11-24.9 122.11-24.02L122.11-24.02Q123.38-23.93 125.92-23.83 128.45-23.73 129.72-23.63ZM148.52-1.27L148.52-1.27 148.76-35.64Q149.3-37.45 152.96-37.45L152.96-37.45Q156.33-37.45 159.16-36.55 161.99-35.64 163.92-33.52 165.85-31.4 165.85-28.42L165.85-28.42Q165.85-26.07 164.7-23.88 163.56-21.68 161.9-21.04L161.9-21.04Q165.02-20.61 166.93-17.29 168.83-13.96 168.83-9.42L168.83-9.42Q168.83-6.35 166.39-4.08 163.95-1.81 160.7-0.81 157.45 0.2 154.13 0.2L154.13 0.2Q150.08 0.2 148.52-1.27ZM152.52-18.36L152.52-18.36Q152.52-14.99 152.42-4.83L152.42-4.83Q153.89-3.17 156.18-3.17L156.18-3.17Q159.21-3.17 162.04-5.69 164.88-8.2 164.88-11.08L164.88-11.08Q164.88-14.65 162.48-16.65 160.09-18.65 156.33-18.65L156.33-18.65Q153.84-18.65 152.52-18.36ZM152.42-21.97L152.42-21.97 155.45-22.02Q158.58-22.02 160.26-23.85 161.95-25.68 161.95-28.22L161.95-28.22Q161.95-30.81 160.24-32.69 158.53-34.57 155.5-34.57L155.5-34.57Q154.13-34.57 152.28-33.98L152.28-33.98Q152.38-31.01 152.4-26.61 152.42-22.22 152.42-21.97ZM187.28-24.51L187.28-24.51 189.63-24.07 189.63-23.58Q189.63-20.26 190.04-12.35 190.46-4.44 190.8-0.15L190.8-0.15Q189.82 0.24 188.94 0.24L188.94 0.24Q188.16 0.24 187.19 0L187.19 0 186.8-1.27Q183.67 0.49 180.84 0.49L180.84 0.49Q178.74 0.49 177.2-0.49 175.66-1.46 174.83-2.91 174-4.35 173.52-6.47 173.03-8.59 172.9-10.33 172.78-12.06 172.78-14.21L172.78-14.21Q172.78-20.46 173.56-25.68L173.56-25.68 175.76-25.2Q176.1-23.58 176.1-21.68L176.1-21.68Q176.1-20.61 175.98-17.97 175.86-15.33 175.86-13.96L175.86-13.96Q175.86-11.57 176.08-9.84 176.3-8.11 176.91-6.47 177.52-4.83 178.79-3.96 180.06-3.08 181.96-3.08L181.96-3.08Q184.11-3.08 186.6-4.05L186.6-4.05Q186.7-5.86 186.8-13.31 186.89-20.75 187.28-24.51ZM210.87-18.6L210.87-18.6 208.72-18.75Q207.69-21.48 205.25-21.48L205.25-21.48Q204.18-21.48 202.98-21 201.78-20.51 201-20 200.22-19.48 198.95-18.51L198.95-18.51Q198.95-17.82 198.93-14.06 198.9-10.3 198.98-5.71 199.05-1.12 199.15-0.78L199.15-0.78Q198.71 0.68 197.44 0.68L197.44 0.68Q196.56 0.68 195.75-0.02 194.95-0.73 194.75-1.76L194.75-1.76Q195.68-17.43 196.41-25.44L196.41-25.44 198.61-24.95 198.76-21.68Q202.17-24.51 204.62-24.51L204.62-24.51Q207.3-24.51 209.13-23.29 210.96-22.07 210.96-19.73L210.96-19.73Q210.96-18.99 210.87-18.6ZM227.95-23.54L227.95-23.54 227.47-21.58Q222.73-23.54 220.09-23.54L220.09-23.54Q217.75-23.54 216.8-22.83 215.84-22.12 215.84-19.82L215.84-19.82Q215.84-17.97 217.19-16.75 218.53-15.53 220.43-14.82 222.34-14.11 224.27-13.31 226.2-12.5 227.54-10.94 228.88-9.38 228.88-7.08L228.88-7.08Q228.88-3.96 226.59-1.61 224.29 0.73 220.63 0.78L220.63 0.78Q217.94 0.78 215.6-0.34 213.26-1.46 211.89-3.17L211.89-3.17 213.31-4.64Q213.89-4.39 215.04-3.86 216.19-3.32 216.67-3.15 217.16-2.98 218.11-2.78 219.07-2.59 220.14-2.59L220.14-2.59Q222.44-2.59 223.9-3.61 225.37-4.64 225.37-6.49L225.37-6.49Q225.37-7.71 224.68-8.57 224-9.42 222.88-9.96 221.75-10.5 220.41-10.99 219.07-11.47 217.72-12.08 216.38-12.7 215.26-13.55 214.14-14.4 213.45-15.87 212.77-17.33 212.77-19.34L212.77-19.34Q212.77-22.27 214.35-24.24 215.94-26.22 218.82-26.22L218.82-26.22Q219.95-26.22 221.36-25.88 222.78-25.54 223.61-25.24 224.44-24.95 226.07-24.29 227.71-23.63 227.95-23.54ZM245.19-23.63L245.19-23.63 245.72-21.44Q244.41-21.34 241.67-20.92 238.94-20.51 237.57-20.41L237.57-20.41Q237.81-18.7 237.86-15.92 237.91-13.13 237.99-11.11 238.06-9.08 238.42-7.06 238.79-5.03 239.94-3.96 241.09-2.88 243.04-2.88L243.04-2.88Q244.5-2.88 246.7-3.56L246.7-3.56Q247.63-1.76 248.07-0.93L248.07-0.93Q244.21 0.44 240.26 0.44L240.26 0.44Q238.79 0.44 237.72-0.44 236.64-1.32 236.06-2.64 235.47-3.96 235.1-5.98 234.74-8.01 234.64-9.81 234.54-11.62 234.54-13.96L234.54-13.96Q234.54-15.23 234.57-17.48 234.59-19.73 234.59-20.56L234.59-20.56Q234.1-20.51 232.3-20.48 230.49-20.46 230.2-20.46L230.2-20.46Q229.86-23.73 229.86-23.83L229.86-23.83Q230.2-23.73 230.98-23.73L230.98-23.73Q231.42-23.73 232.39-23.8 233.37-23.88 233.86-23.88L233.86-23.88Q234.05-23.88 234.37-23.85 234.69-23.83 234.79-23.83L234.79-23.83Q234.98-29.2 235.23-32.57L235.23-32.57 237.42-32.03Q237.47-30.86 237.5-29.52 237.52-28.17 237.55-26.54 237.57-24.9 237.57-24.02L237.57-24.02Q238.84-23.93 241.38-23.83 243.92-23.73 245.19-23.63Z" opacity="1" transform="matrix(1,0,0,1,0,0)" fill="#eae5df" class="wordmark-text-0" data-fill-palette-color="quaternary" id="text-0"></path></svg></g></svg></g><g transform="matrix(1,0,0,1,0,72.67581295238095)"><svg viewBox="0 0 316.72104 34.85902732780083" height="34.85902732780083" width="316.72104"><g transform="matrix(1,0,0,1,0,0)"><svg width="316.72104" viewBox="2.5 -35.9 481.94 53.05" height="34.85902732780083" data-palette-color="#eae5df"><path d="M15.7-18.6Q15.7-18.4 15.75-18.18 15.8-17.95 15.85-17.75L15.85-17.75Q16.25-17.7 17.05-17.7L17.05-17.7Q20.55-17.7 24.25-19.2L24.25-19.2Q25.3-19.6 26-19.6L26-19.6Q27.4-19.6 28.3-18.3L28.3-18.3Q28.75-17.6 28.75-17.1L28.75-17.1Q28.75-16.5 28.1-15.85L28.1-15.85Q26.1-14 23.85-13.75L23.85-13.75Q21.85-13.5 17.85-12.9L17.85-12.9 14.35-12.4Q13.55-10.65 13.55-9L13.55-9Q13.55-6.6 15.23-5.03 16.9-3.45 19.8-3.35L19.8-3.35Q22.75-3.3 27.35-3.75L27.35-3.75 28.1-3.8Q29.35-3.8 30.18-3.23 31-2.65 31.75-1.2L31.75-1.2Q31.2 0 30.2 0.43 29.2 0.85 27.6 1.05L27.6 1.05Q25.95 1.25 23.85 1.25L23.85 1.25Q19.3 1.25 15.65-0.2L15.65-0.2Q9.2-2.7 7.4-8.85L7.4-8.85Q7.15-9.7 7.15-10.68 7.15-11.65 7.15-11.85L7.15-11.85Q7.15-13.55 5.5-14.35L5.5-14.35Q4.15-15.1 3.43-15.8 2.7-16.5 2.5-17.9L2.5-17.9 8.15-18.25 10.7-25.6Q10.8-25.95 10.93-26.48 11.05-27 11.2-27.3L11.2-27.3Q11.65-28.3 11.65-28.95L11.65-28.95Q11.65-29.95 10.7-30.7L10.7-30.7Q10.35-30.95 10.13-31.63 9.9-32.3 9.7-32.7L9.7-32.7 10.8-33.05Q11.6-33.25 11.95-33.4L11.95-33.4Q12.15-33.5 12.8-33.77 13.45-34.05 13.55-34.4L13.55-34.4Q13.9-35.25 14.43-35.55 14.95-35.85 15.7-35.85L15.7-35.85Q16.2-35.85 17.2-35.75L17.2-35.75Q17.5-35.75 17.82-35.63 18.15-35.5 18.35-35.3L18.35-35.3Q19.5-34.1 20.9-33.7 22.3-33.3 24.2-33.3L24.2-33.3 26.35-33.3 30.55-33.3Q34.8-33.3 36.9-33.2L36.9-33.2Q38-33.15 39.7-32.25L39.7-32.25Q40-32.1 40.18-31.68 40.35-31.25 40.35-30.85L40.35-30.85Q40.35-30.65 40-30.38 39.65-30.1 39.35-30L39.35-30Q35.95-29.1 34.2-28.95L34.2-28.95Q31.5-28.7 26.1-28.3L26.1-28.3Q24.85-28.25 22.1-28.05L22.1-28.05Q21.9-28.05 21.4-28.18 20.9-28.3 20.65-28.3L20.65-28.3Q18.8-28.3 18.3-26.75L18.3-26.75Q16.95-22.75 15.75-18.8L15.75-18.8 15.7-18.6ZM49.35-10.95Q49.55-10.55 49.8-9.65L49.8-9.65Q50.35-7.95 50.45-7.75L50.45-7.75Q51.5-9.65 52.4-11.5L52.4-11.5Q53.85-14.5 54.65-15.7L54.65-15.7Q56.1-17.9 58.1-19.6L58.1-19.6Q58.5-20 59.05-20L59.05-20Q59.55-20 59.87-19.6 60.2-19.2 60.3-18.6L60.3-18.6Q60.35-18.4 60.35-17.95L60.35-17.95Q60.35-16.85 59.95-15.75L59.95-15.75Q59.2-13.8 56.25-6.2L56.25-6.2 54.1-0.65Q53.65 0.6 52.67 1.28 51.7 1.95 50.6 1.95L50.6 1.95Q48.95 1.95 47.7 0.55L47.7 0.55Q46.95-0.35 46.15-2.55L46.15-2.55Q43.85-9.6 42.3-14.65L42.3-14.65Q42.15-15.05 41.87-15.68 41.6-16.3 41.6-16.7L41.6-16.7Q41.6-17.4 42.35-17.95L42.35-17.95Q43.1-18.5 43.95-18.5L43.95-18.5Q44.9-18.5 46.3-17.55L46.3-17.55Q47.3-16.8 47.75-15.85 48.2-14.9 48.6-13.35L48.6-13.35Q49-11.75 49.35-10.95L49.35-10.95ZM73.45-7.8Q72.95-7.5 72-7.5L72-7.5Q71.65-7.5 71.15-7.55 70.65-7.6 70.3-7.55L70.3-7.55Q70.7-5.9 72.2-4.88 73.7-3.85 75.55-3.85L75.55-3.85Q77.15-3.85 78.4-4.55L78.4-4.55Q80.25-5.5 81.59-6.8L81.59-6.8Q82.55-7.75 83.4-7.75L83.4-7.75Q83.95-7.75 84.34-7.2L84.34-7.2Q84.75-6.55 84.75-5.6L84.75-5.6Q84.75-4.6 84.34-4.05L84.34-4.05Q83.05-2.05 80.97-1.3 78.9-0.55 76.15-0.55L76.15-0.55Q73.3-0.55 70.65-1.8 68-3.05 66.12-5.23 64.25-7.4 63.65-10.05L63.65-10.05Q63.25-11.6 63.25-13.1L63.25-13.1Q63.25-15.45 64.57-16.9 65.9-18.35 68.84-19.65L68.84-19.65Q71.55-20.8 73.84-20.8L73.84-20.8Q75.5-20.8 77.05-20.3L77.05-20.3Q81.84-18.8 81.84-16.2L81.84-16.2Q81.84-14.55 79.9-12.2L79.9-12.2Q78.95-11.1 77.65-10.25 76.34-9.4 75.12-8.72 73.9-8.05 73.45-7.8L73.45-7.8ZM75.55-17.05Q75.5-17.3 75.17-17.48 74.84-17.65 74.8-17.7L74.8-17.7Q73.45-17.8 72.05-16.93 70.65-16.05 69.72-14.7 68.8-13.35 68.8-12.1L68.8-12.1 68.84-11.7Q68.9-11.5 69.37-11.2 69.84-10.9 69.95-11L69.95-11Q73.5-13.65 75.3-15.25L75.3-15.25Q75.59-15.55 75.59-16.35L75.59-16.35Q75.59-16.85 75.55-17.05L75.55-17.05ZM94.24-21.2Q94.39-20.7 94.29-19.65L94.29-19.65 93.69-13.75Q93.94-13.95 94.44-15.18 94.94-16.4 95.39-17.18 95.84-17.95 96.09-18.2L96.09-18.2Q98.44-20.45 101.39-20.9 104.34-21.35 107.89-21.3L107.89-21.3Q108.24-21.3 108.67-21.03 109.09-20.75 109.09-20.58 109.09-20.4 108.79-20.03 108.49-19.65 108.24-19.55L108.24-19.55Q105.24-18.55 102.97-17.25 100.69-15.95 99.04-13.85L99.04-13.85Q95.14-8.9 94.54-3.65L94.54-3.65Q94.39-2.25 93.69-1.78 92.99-1.3 91.74-1.3L91.74-1.3Q90.34-1.3 89.24-2.5 88.14-3.7 88.14-5.15L88.14-5.15Q88.19-10.45 88.19-21.05L88.19-21.05Q88.19-22.5 88.84-23.08 89.49-23.65 91.19-23.65L91.19-23.65Q92.44-23.65 93.32-22.95 94.19-22.25 94.24-21.2L94.24-21.2ZM110.24 14.1Q110.59 14 111.14 13.83 111.69 13.65 112.09 13.6L112.09 13.6Q115.69 13.5 117.37 12.1 119.04 10.7 119.49 7.15L119.49 7.15Q119.94 3.6 120.39-3.5L120.39-3.5 120.59-6.7Q120.64-7.85 120.17-8.47 119.69-9.1 118.44-9.25L118.44-9.25Q115.74-9.55 113.77-11.35 111.79-13.15 111.04-15.9L111.04-15.9Q110.79-16.75 110.49-17.9L110.49-17.9Q109.89-20.1 109.64-21.2L109.64-21.2 109.64-21.3Q109.64-21.6 109.84-21.98 110.04-22.35 110.24-22.5L110.24-22.5Q111.04-23.05 112.09-23.05L112.09-23.05Q113.49-23.05 114.59-22.08 115.69-21.1 115.84-19.65L115.84-19.65Q116.09-17.4 116.69-14.75L116.69-14.75Q116.94-13.7 117.64-13.7L117.64-13.7Q118.19-13.7 118.59-14.25L118.59-14.25Q119.89-15.9 120.59-17.45L120.59-17.45Q121.44-19.35 123.09-19.35L123.09-19.35Q123.54-19.35 123.74-19.3L123.74-19.3Q126.34-18.8 126.24-16.1L126.24-16.1 126.09-11.45Q125.89-5.25 125.64-2.2L125.64-2.2 125.49-0.2Q125.19 3.9 124.92 6.18 124.64 8.45 124.04 10.75L124.04 10.75Q123.29 13.65 121.29 15.08 119.29 16.5 116.59 16.5L116.59 16.5Q114.44 16.5 112.29 15.65L112.29 15.65Q111.84 15.45 111.24 15.13 110.64 14.8 110.34 14.6L110.34 14.6 110.24 14.1ZM155.99-4Q154.49-2.4 152.74-2.4L152.74-2.4Q151.29-2.4 149.69-3.35L149.69-3.35 149.54 1.2Q149.29 6.2 149.29 9.9L149.29 9.9Q149.29 10.6 149.39 12.1L149.39 12.1Q149.49 13.6 149.49 14.3L149.49 14.3Q149.49 15.05 149.44 15.4L149.44 15.4Q149.39 15.85 148.84 16.38 148.29 16.9 147.74 17.05L147.74 17.05Q147.34 17.15 147.19 17.15L147.19 17.15Q146.04 17.15 144.96 16.15 143.89 15.15 143.94 14.05L143.94 14.05Q144.04 10.3 144.34 3.2L144.34 3.2 144.69-7.7Q144.79-10.7 144.34-12.75L144.34-12.75Q144.24-13.35 144.24-13.55L144.24-13.55Q144.24-14.35 144.71-14.8 145.19-15.25 145.99-15.35L145.99-15.35Q147.24-15.45 147.99-16.03 148.74-16.6 149.74-17.85L149.74-17.85Q151.54-20.1 153.69-20.1L153.69-20.1Q156.09-20.1 159.14-17.15L159.14-17.15Q160.54-15.8 160.54-13.5L160.54-13.5Q160.54-12.65 160.39-11.8L160.39-11.8Q160.04-9.7 158.91-7.9 157.79-6.1 155.99-4L155.99-4ZM151.34-12.35Q150.24-9.35 150.24-7L150.24-7Q150.24-6.45 150.29-6.2L150.29-6.2 150.89-5.9Q151.89-6.2 152.99-7.65 154.09-9.1 154.81-10.93 155.54-12.75 155.54-14.15L155.54-14.15Q155.54-14.75 155.29-15.35L155.29-15.35Q154.94-16 154.24-16L154.24-16Q153.34-16 152.94-15.35L152.94-15.35Q152.79-15.15 152.24-14.25 151.69-13.35 151.34-12.35L151.34-12.35ZM172.13-21.2Q172.28-20.7 172.18-19.65L172.18-19.65 171.58-13.75Q171.83-13.95 172.33-15.18 172.83-16.4 173.28-17.18 173.73-17.95 173.98-18.2L173.98-18.2Q176.33-20.45 179.28-20.9 182.23-21.35 185.78-21.3L185.78-21.3Q186.13-21.3 186.56-21.03 186.98-20.75 186.98-20.58 186.98-20.4 186.68-20.03 186.38-19.65 186.13-19.55L186.13-19.55Q183.13-18.55 180.86-17.25 178.58-15.95 176.93-13.85L176.93-13.85Q173.03-8.9 172.43-3.65L172.43-3.65Q172.28-2.25 171.58-1.78 170.88-1.3 169.63-1.3L169.63-1.3Q168.23-1.3 167.13-2.5 166.03-3.7 166.03-5.15L166.03-5.15Q166.08-10.45 166.08-21.05L166.08-21.05Q166.08-22.5 166.73-23.08 167.38-23.65 169.08-23.65L169.08-23.65Q170.33-23.65 171.21-22.95 172.08-22.25 172.13-21.2L172.13-21.2ZM198.98-3.35Q197.43-2.4 195.43-2.4L195.43-2.4Q193.23-2.4 191.21-3.53 189.18-4.65 187.98-6.75 186.78-8.85 186.98-11.55L186.98-11.55 187.23-12.75Q187.53-14.55 187.73-15.4L187.73-15.4Q188.18-17.25 189.53-18 190.88-18.75 193.13-19.2L193.13-19.2Q194.58-19.5 195.98-19.5L195.98-19.5Q200.38-19.5 203.38-16.55L203.38-16.55Q204.98-14.95 204.98-12.65L204.98-12.65Q204.98-10.4 203.33-7.8L203.33-7.8Q201.43-4.85 198.98-3.35L198.98-3.35ZM194.78-16.95Q193.98-15 193.08-12.1L193.08-12.1 192.58-10.6 192.93-10.45Q192.93-10.1 192.96-9.38 192.98-8.65 193.13-8.15L193.13-8.15Q193.68-6.6 194.38-6.25L194.38-6.25Q194.68-6.1 195.26-6.4 195.83-6.7 196.28-7.1L196.28-7.1Q196.98-7.7 198.53-9.6L198.53-9.6Q199.68-10.9 199.68-12.7L199.68-12.7Q199.68-14.25 198.81-15.5 197.93-16.75 196.38-17.2L196.38-17.2Q196.23-17.25 195.83-17.25L195.83-17.25Q194.88-17.25 194.78-16.95L194.78-16.95ZM227.88-5.85Q227.98-5 228.63-3.65L228.63-3.65Q228.73-3.4 228.85-3.1 228.98-2.8 229.13-2.4L229.13-2.4Q227.43-1.45 226.43-1.45L226.43-1.45Q225.68-1.45 225.03-1.93 224.38-2.4 223.58-3.45L223.58-3.45Q222.98-4.15 222.58-4.15L222.58-4.15Q222.18-4.15 221.73-3.5L221.73-3.5Q220.73-2 219.25-1.25 217.78-0.5 216.13-0.5L216.13-0.5Q214.28-0.5 212.55-1.38 210.83-2.25 209.88-3.75L209.88-3.75Q208.88-5.3 208.88-8.35L208.88-8.35Q208.88-10.55 209.48-12.8 210.08-15.05 211.18-16.5L211.18-16.5Q212.38-18.15 214.03-19.13 215.68-20.1 217.68-20.1L217.68-20.1Q218.33-20.1 218.68-20.05L218.68-20.05Q218.83-20 219.13-20L219.13-20Q220.28-20 220.28-21.1L220.28-21.1 220.23-21.5Q219.53-27.25 218.98-29.95L218.98-29.95Q218.93-30.2 218.83-30.75 218.73-31.3 218.73-31.65L218.73-31.65Q218.73-32.35 219.03-32.88 219.33-33.4 220.08-33.75L220.08-33.75Q220.38-33.9 220.78-33.9L220.78-33.9Q221.83-33.9 222.98-33.23 224.13-32.55 224.33-31.7L224.33-31.7Q225.08-28.6 225.73-23.65L225.73-23.65 226.63-16.05Q227.43-9.25 227.88-5.85L227.88-5.85ZM214.53-12.1Q213.68-9.65 213.68-7.6L213.68-7.6Q213.68-4.75 215.68-3.4L215.68-3.4Q216.48-3.85 216.95-4.42 217.43-5 218.08-6.1L218.08-6.1 218.63-7.05Q219.78-8.7 220.15-10.75 220.53-12.8 220.63-15.95L220.63-15.95Q220.68-16.4 220.45-16.98 220.23-17.55 219.98-17.6L219.98-17.6Q219.58-17.7 218.63-17.38 217.68-17.05 217.43-16.7L217.43-16.7Q216.28-15.35 215.6-14.35 214.93-13.35 214.53-12.1L214.53-12.1ZM238.43-21Q239.68-20.65 240.2-20.15 240.73-19.65 240.73-18.8L240.73-18.8Q240.73-18.4 240.58-17.75L240.58-17.75Q240.03-15.5 239.98-13.25L239.98-13.25Q239.93-10.7 240.78-8.55L240.78-8.55Q241.08-7.8 241.35-7.48 241.63-7.15 242.03-7.15L242.03-7.15Q242.53-7.15 243.33-8.05L243.33-8.05Q245.18-10.25 246.08-12.45 246.98-14.65 247.18-17L247.18-17Q247.33-18.55 247.68-18.95L247.68-18.95Q247.88-19.15 248.33-19.2 248.78-19.25 249.63-19.25L249.63-19.25Q250.98-19.15 251.5-19 252.03-18.85 252.23-18.5 252.43-18.15 252.43-17.35L252.43-17.35 252.38-15Q252.38-14.25 252.33-12.8L252.33-12.8Q252.18-8.3 252.08-6.1L252.08-6.1Q252.03-4.35 251.03-1.7L251.03-1.7Q250.93-1.55 250.48-1.28 250.03-1 249.68-0.95L249.68-0.95Q249.58-0.95 249.25-1.28 248.93-1.6 248.78-1.85L248.78-1.85Q248.43-2.65 247.98-4L247.98-4 247.58-4.95 247.48-5.25 247.33-5.1 246.53-4.6Q245.93-4.1 245.23-3.8L245.23-3.8Q244.08-3.1 242.48-3.1L242.48-3.1Q240.48-3.1 238.68-4.23 236.88-5.35 235.83-7.3L235.83-7.3Q234.13-10.3 234.13-14.25L234.13-14.25Q234.13-16.25 234.68-19.3L234.68-19.3Q234.78-20.05 235.63-20.6L235.63-20.6Q236.38-21.15 237.38-21.15L237.38-21.15Q237.88-21.15 238.43-21L238.43-21ZM276.52-5.1Q275.02-3.4 273.47-2.43 271.92-1.45 270.02-1.45L270.02-1.45Q269.62-1.45 268.92-1.55L268.92-1.55 267.92-1.5Q261.62-1.45 258.72-7.5L258.72-7.5Q258.07-8.9 258.07-10.85L258.07-10.85Q258.07-12.55 258.57-14.1 259.07-15.65 259.97-16.65L259.97-16.65 260.92-17.8Q261.62-18.7 262.02-19.05L262.02-19.05Q263.77-20.75 266.67-20.75L266.67-20.75Q268.17-20.75 269.62-20.25 271.07-19.75 272.17-18.9L272.17-18.9Q272.37-18.75 272.57-18.28 272.77-17.8 272.77-17.5L272.77-17.5Q272.77-17.1 272.17-16.63 271.57-16.15 271.07-16.2L271.07-16.2Q267.67-16.6 265.62-14.58 263.57-12.55 263.57-9.05L263.57-9.05Q263.57-6.75 264.55-5.8 265.52-4.85 267.77-4.85L267.77-4.85Q269.17-4.85 270.42-5.43 271.67-6 273.32-7.05L273.32-7.05 274.27-7.65Q274.77-7.9 275.6-7.98 276.42-8.05 276.87-8.1L276.87-8.1Q276.82-7.65 276.85-7.23 276.87-6.8 276.87-6.55L276.87-6.55Q276.87-5.45 276.52-5.1L276.52-5.1ZM280.52-18.65Q280.17-19.05 280.05-19.5 279.92-19.95 279.82-20.75L279.82-20.75Q280.27-21.8 281.47-21.8L281.47-21.8Q282.07-21.7 282.32-21.7L282.32-21.7Q283.32-21.7 283.57-22.3 283.82-22.9 283.82-23.7 283.82-24.5 283.82-24.95L283.82-24.95 283.97-27.95Q284.02-28.95 284.09-30.43 284.17-31.9 284.27-33.85L284.27-33.85Q284.32-34.9 284.8-35.4 285.27-35.9 286.12-35.9L286.12-35.9Q286.72-35.9 287.07-35.8L287.07-35.8Q289.12-35.35 289.82-34.5 290.52-33.65 290.77-31.95L290.77-31.95Q290.82-31.6 290.67-30.5L290.67-30.5 289.77-22.7Q289.72-22.4 289.62-21.98 289.52-21.55 289.52-21.35L289.52-21.35Q289.52-20.9 290.02-20.75 290.52-20.6 291.87-20.65L291.87-20.65Q294.17-21.15 295.37-21.3L295.37-21.3Q295.62-21.35 296.17-21.35L296.17-21.35Q296.77-21.35 296.97-21.2L296.97-21.2Q297.17-21.1 297.3-20.63 297.42-20.15 297.42-19.55L297.42-19.55Q297.42-19 297.3-18.55 297.17-18.1 296.97-18.05L296.97-18.05Q295.62-17.65 293.77-17.4L293.77-17.4Q291.57-17 290.52-16.7L290.52-16.7Q289.97-16.55 289.42-15.95 288.87-15.35 288.82-14.85L288.82-14.85Q288.72-12.4 288.67-9.85L288.67-9.85Q288.62-7.9 288.82-5.95L288.82-5.95Q288.97-4.3 289.47-3.58 289.97-2.85 290.97-2.85L290.97-2.85Q291.77-2.85 293.27-3.4L293.27-3.4Q294.07-3.75 294.67-3.75L294.67-3.75Q295.62-3.75 296.02-2.7L296.02-2.7Q296.17-2.35 296.17-2L296.17-2Q296.17-1.35 295.69-0.95 295.22-0.55 294.42-0.25L294.42-0.25Q292.92 0.3 291.37 0.35L291.37 0.35Q289.27 0.35 287.42-0.68 285.57-1.7 284.5-3.55 283.42-5.4 283.57-7.8L283.57-7.8Q283.62-8.75 283.62-10.8L283.62-10.8Q283.62-14.05 283.37-17.4L283.37-17.4Q283.32-17.7 283.02-17.82 282.72-17.95 282.02-18.1L282.02-18.1Q280.87-18.3 280.52-18.65L280.52-18.65ZM318.51-23.3Q318.42-23 317.79-22.65 317.17-22.3 316.76-22L316.76-22 315.37-22.75Q313.31-23.85 312.56-24.5L312.56-24.5Q312.17-24.8 312.17-25.25L312.17-25.25Q312.17-25.55 312.39-25.78 312.62-26 313.06-26L313.06-26Q315.01-26 317.81-25L317.81-25Q318.12-24.95 318.37-24.33 318.62-23.7 318.51-23.3L318.51-23.3ZM314.01-14Q314.17-14.65 314.21-14.95 314.26-15.25 314.26-15.6L314.26-15.6Q314.26-16.3 314.69-16.7 315.12-17.1 316.31-17.1L316.31-17.1Q317.71-17.1 318.79-16.23 319.87-15.35 320.12-13.95L320.12-13.95Q320.26-13.25 320.31-12.4 320.37-11.55 320.37-11.3L320.37-11.3 321.06-2.75Q321.21-1.4 320.69-0.68 320.17 0.05 318.71 0.05L318.71 0.05Q317.46 0.05 316.59-0.65 315.71-1.35 315.51-2.45L315.51-2.45 314.21-13.05 314.01-14ZM329.56 1.1Q325.36 1.1 324.21-2.5L324.21-2.5Q324.61-2.5 325.29-2.48 325.96-2.45 326.41-2.35L326.41-2.35Q327.11-2.25 327.41-2.25L327.41-2.25Q329.66-2.25 331.16-4.25L331.16-4.25Q332.21-5.7 332.21-7.2L332.21-7.2Q332.21-8.2 331.71-9.15L331.71-9.15Q330.61-11.1 329.01-13.45L329.01-13.45Q327.96-15 327.11-16.4L327.11-16.4Q326.11-18 326.11-19.95L326.11-19.95Q326.11-21.75 327.14-23.13 328.16-24.5 330.16-24.85L330.16-24.85 331.76-25.15Q334.36-25.65 335.66-25.65L335.66-25.65Q337.81-25.65 339.46-24.65L339.46-24.65Q339.81-24.4 340.19-23.78 340.56-23.15 340.76-22.8L340.76-22.8Q340.41-22.65 339.79-22.33 339.16-22 338.71-21.95L338.71-21.95Q338.01-21.85 336.61-21.85L336.61-21.85Q335.26-21.85 334.56-21.8L334.56-21.8Q332.96-21.65 332.04-20.73 331.11-19.8 331.11-18.5L331.11-18.5Q331.11-17.5 331.71-16.45L331.71-16.45Q333.06-14.2 335.46-11.3L335.46-11.3Q337.26-9.05 337.26-6.65L337.26-6.65Q337.26-5.35 336.66-3.9L336.66-3.9Q334.61 1.1 329.56 1.1L329.56 1.1ZM359.06 1.1Q354.86 1.1 353.71-2.5L353.71-2.5Q354.11-2.5 354.78-2.48 355.46-2.45 355.91-2.35L355.91-2.35Q356.61-2.25 356.91-2.25L356.91-2.25Q359.16-2.25 360.66-4.25L360.66-4.25Q361.71-5.7 361.71-7.2L361.71-7.2Q361.71-8.2 361.21-9.15L361.21-9.15Q360.11-11.1 358.51-13.45L358.51-13.45Q357.46-15 356.61-16.4L356.61-16.4Q355.61-18 355.61-19.95L355.61-19.95Q355.61-21.75 356.63-23.13 357.66-24.5 359.66-24.85L359.66-24.85 361.26-25.15Q363.86-25.65 365.16-25.65L365.16-25.65Q367.31-25.65 368.96-24.65L368.96-24.65Q369.31-24.4 369.68-23.78 370.06-23.15 370.26-22.8L370.26-22.8Q369.91-22.65 369.28-22.33 368.66-22 368.21-21.95L368.21-21.95Q367.51-21.85 366.11-21.85L366.11-21.85Q364.76-21.85 364.06-21.8L364.06-21.8Q362.46-21.65 361.53-20.73 360.61-19.8 360.61-18.5L360.61-18.5Q360.61-17.5 361.21-16.45L361.21-16.45Q362.56-14.2 364.96-11.3L364.96-11.3Q366.76-9.05 366.76-6.65L366.76-6.65Q366.76-5.35 366.16-3.9L366.16-3.9Q364.11 1.1 359.06 1.1L359.06 1.1ZM383.86-4Q382.36-2.4 380.61-2.4L380.61-2.4Q379.16-2.4 377.56-3.35L377.56-3.35 377.41 1.2Q377.16 6.2 377.16 9.9L377.16 9.9Q377.16 10.6 377.25 12.1L377.25 12.1Q377.36 13.6 377.36 14.3L377.36 14.3Q377.36 15.05 377.31 15.4L377.31 15.4Q377.25 15.85 376.7 16.38 376.16 16.9 375.61 17.05L375.61 17.05Q375.2 17.15 375.06 17.15L375.06 17.15Q373.91 17.15 372.83 16.15 371.75 15.15 371.81 14.05L371.81 14.05Q371.91 10.3 372.2 3.2L372.2 3.2 372.56-7.7Q372.66-10.7 372.2-12.75L372.2-12.75Q372.11-13.35 372.11-13.55L372.11-13.55Q372.11-14.35 372.58-14.8 373.06-15.25 373.86-15.35L373.86-15.35Q375.11-15.45 375.86-16.03 376.61-16.6 377.61-17.85L377.61-17.85Q379.41-20.1 381.56-20.1L381.56-20.1Q383.95-20.1 387-17.15L387-17.15Q388.41-15.8 388.41-13.5L388.41-13.5Q388.41-12.65 388.25-11.8L388.25-11.8Q387.91-9.7 386.78-7.9 385.66-6.1 383.86-4L383.86-4ZM379.2-12.35Q378.11-9.35 378.11-7L378.11-7Q378.11-6.45 378.16-6.2L378.16-6.2 378.75-5.9Q379.75-6.2 380.86-7.65 381.95-9.1 382.68-10.93 383.41-12.75 383.41-14.15L383.41-14.15Q383.41-14.75 383.16-15.35L383.16-15.35Q382.81-16 382.11-16L382.11-16Q381.2-16 380.81-15.35L380.81-15.35Q380.66-15.15 380.11-14.25 379.56-13.35 379.2-12.35L379.2-12.35ZM402.5-7.8Q402-7.5 401.05-7.5L401.05-7.5Q400.7-7.5 400.2-7.55 399.7-7.6 399.35-7.55L399.35-7.55Q399.75-5.9 401.25-4.88 402.75-3.85 404.6-3.85L404.6-3.85Q406.2-3.85 407.45-4.55L407.45-4.55Q409.3-5.5 410.65-6.8L410.65-6.8Q411.6-7.75 412.45-7.75L412.45-7.75Q413-7.75 413.4-7.2L413.4-7.2Q413.8-6.55 413.8-5.6L413.8-5.6Q413.8-4.6 413.4-4.05L413.4-4.05Q412.1-2.05 410.03-1.3 407.95-0.55 405.2-0.55L405.2-0.55Q402.35-0.55 399.7-1.8 397.05-3.05 395.18-5.23 393.3-7.4 392.7-10.05L392.7-10.05Q392.3-11.6 392.3-13.1L392.3-13.1Q392.3-15.45 393.63-16.9 394.95-18.35 397.9-19.65L397.9-19.65Q400.6-20.8 402.9-20.8L402.9-20.8Q404.55-20.8 406.1-20.3L406.1-20.3Q410.9-18.8 410.9-16.2L410.9-16.2Q410.9-14.55 408.95-12.2L408.95-12.2Q408-11.1 406.7-10.25 405.4-9.4 404.18-8.72 402.95-8.05 402.5-7.8L402.5-7.8ZM404.6-17.05Q404.55-17.3 404.23-17.48 403.9-17.65 403.85-17.7L403.85-17.7Q402.5-17.8 401.1-16.93 399.7-16.05 398.78-14.7 397.85-13.35 397.85-12.1L397.85-12.1 397.9-11.7Q397.95-11.5 398.43-11.2 398.9-10.9 399-11L399-11Q402.55-13.65 404.35-15.25L404.35-15.25Q404.65-15.55 404.65-16.35L404.65-16.35Q404.65-16.85 404.6-17.05L404.6-17.05ZM433.95-5.1Q432.45-3.4 430.9-2.43 429.35-1.45 427.45-1.45L427.45-1.45Q427.05-1.45 426.35-1.55L426.35-1.55 425.35-1.5Q419.05-1.45 416.15-7.5L416.15-7.5Q415.5-8.9 415.5-10.85L415.5-10.85Q415.5-12.55 416-14.1 416.5-15.65 417.4-16.65L417.4-16.65 418.35-17.8Q419.05-18.7 419.45-19.05L419.45-19.05Q421.2-20.75 424.1-20.75L424.1-20.75Q425.6-20.75 427.05-20.25 428.5-19.75 429.6-18.9L429.6-18.9Q429.8-18.75 430-18.28 430.2-17.8 430.2-17.5L430.2-17.5Q430.2-17.1 429.6-16.63 429-16.15 428.5-16.2L428.5-16.2Q425.1-16.6 423.05-14.58 421-12.55 421-9.05L421-9.05Q421-6.75 421.98-5.8 422.95-4.85 425.2-4.85L425.2-4.85Q426.6-4.85 427.85-5.43 429.1-6 430.75-7.05L430.75-7.05 431.7-7.65Q432.2-7.9 433.03-7.98 433.85-8.05 434.3-8.1L434.3-8.1Q434.25-7.65 434.28-7.23 434.3-6.8 434.3-6.55L434.3-6.55Q434.3-5.45 433.95-5.1L433.95-5.1ZM443.5-23.3Q443.4-23 442.77-22.65 442.15-22.3 441.75-22L441.75-22 440.35-22.75Q438.3-23.85 437.55-24.5L437.55-24.5Q437.15-24.8 437.15-25.25L437.15-25.25Q437.15-25.55 437.37-25.78 437.6-26 438.05-26L438.05-26Q440-26 442.8-25L442.8-25Q443.1-24.95 443.35-24.33 443.6-23.7 443.5-23.3L443.5-23.3ZM439-14Q439.15-14.65 439.2-14.95 439.25-15.25 439.25-15.6L439.25-15.6Q439.25-16.3 439.67-16.7 440.1-17.1 441.3-17.1L441.3-17.1Q442.7-17.1 443.77-16.23 444.85-15.35 445.1-13.95L445.1-13.95Q445.25-13.25 445.3-12.4 445.35-11.55 445.35-11.3L445.35-11.3 446.05-2.75Q446.2-1.4 445.67-0.68 445.15 0.05 443.7 0.05L443.7 0.05Q442.45 0.05 441.57-0.65 440.7-1.35 440.5-2.45L440.5-2.45 439.2-13.05 439-14ZM465.55-2.55Q465.1-2.75 464.65-2.75L464.65-2.75Q464.19-2.75 463.87-2.53 463.55-2.3 463.15-1.85L463.15-1.85Q462.55-1.25 461.9-0.85L461.9-0.85Q461.3-0.5 459.69-0.2L459.69-0.2Q459-0.1 458.55-0.1L458.55-0.1Q456.44-0.1 454.17-1.03 451.9-1.95 450.94-3.25L450.94-3.25Q449.94-4.65 450-6.25L450-6.25Q450.05-8.65 452-11.05L452-11.05Q453.9-13.35 455.47-14.3 457.05-15.25 459.8-15.5L459.8-15.5Q460.4-15.5 461.52-15.7 462.65-15.9 462.65-16.25L462.65-16.25Q462.65-16.95 462.02-17.53 461.4-18.1 459.5-18.1L459.5-18.1Q458.8-18.1 457.4-18L457.4-18Q456-17.9 455.44-17.9L455.44-17.9Q453.75-17.9 453-18.45L453-18.45Q452.8-18.55 452.8-19.4L452.8-19.4Q452.8-20.9 453.85-21.3L453.85-21.3Q456-22.1 458.3-22.15L458.3-22.15Q461.19-22.15 463.67-20.88 466.15-19.6 467.3-17.7L467.3-17.7Q468.44-15.8 468.8-12.45L468.8-12.45Q469.19-8.7 469.19-2.9L469.19-2.9Q469.19-1.3 468.75-1.05L468.75-1.05Q468.35-0.8 468-0.8L468-0.8Q467.55-0.8 467.17-1.07 466.8-1.35 466.35-1.85L466.35-1.85Q465.9-2.4 465.55-2.55L465.55-2.55ZM457.65-3.15Q460-3.85 462.25-5.4L462.25-5.4Q462.75-5.75 463.15-6.3 463.55-6.85 463.65-7L463.65-7Q463.75-7.15 463.82-7.88 463.9-8.6 463.85-9.05L463.85-9.05Q463.8-9.2 463.67-9.85 463.55-10.5 463.3-11L463.3-11Q463.05-11.4 462.5-11.75 461.94-12.1 461.5-12.05L461.5-12.05Q460.55-12 459.44-11.35 458.35-10.7 457.4-9.6L457.4-9.6Q456.44-8.45 455.92-7.28 455.4-6.1 455.4-5.1L455.4-5.1Q455.5-3.75 456.15-3.3L456.15-3.3Q456.5-3.05 457-3.05L457-3.05Q457.4-3.05 457.65-3.15L457.65-3.15ZM480.24-2.3Q481.24-3.5 481.69-4.2L481.69-4.2Q482.24-4.95 482.84-4.95L482.84-4.95Q483.44-4.95 483.74-4.2L483.74-4.2Q484.44-2.2 484.44-1.05L484.44-1.05Q484.44-0.55 484.39-0.3L484.39-0.3Q484.19 0.7 483.27 1.1 482.34 1.5 481.09 1.4L481.09 1.4Q480.64 1.4 479.57 1.4 478.49 1.4 477.72 1.1 476.94 0.8 476.34 0.1L476.34 0.1Q475.04-1.45 475.04-2.9L475.04-2.9Q475.04-14.6 474.94-20.5L474.94-20.5 474.89-29.3Q474.89-31.05 474.54-32.5L474.54-32.5Q474.49-32.75 474.49-33.1L474.49-33.1Q474.49-34.95 476.99-34.95L476.99-34.95Q478.64-34.95 479.77-33.88 480.89-32.8 480.79-31.05L480.79-31.05Q480.64-28.4 480.39-23.1L480.39-23.1 480.09-17.1Q479.69-8.6 479.54-4.35L479.54-4.35Q479.49-3.85 479.59-3.25 479.69-2.65 479.74-2.5L479.74-2.5 480.24-2.3Z" opacity="1" transform="matrix(1,0,0,1,0,0)" fill="#eae5df" class="slogan-text-1" data-fill-palette-color="quaternary" id="text-1"></path></svg></g></svg></g></svg></g></svg></g><g></g></svg></g><defs></defs></svg><rect width="356.12052" height="146.9343202801818" fill="none" stroke="none" visibility="hidden"></rect></g></svg></g></svg>